# Blender 4.3.2
# www.blender.org
mtllib phantom_collision_mesh_001.mtl
o phantom_collision_mesh_001
v -0.041828 -0.007151 0.005214
v -0.039319 -0.002530 0.005214
v -0.050262 -0.002572 0.005214
v -0.047753 0.002049 0.005214
v -0.041357 -0.008086 0.002264
v -0.038278 -0.002416 0.002264
v -0.050976 -0.002863 0.002264
v -0.047898 0.002807 0.002264
v -0.110359 -0.115545 -0.003727
v -0.110271 0.114152 -0.003727
v -0.110359 -0.115545 0.002119
v -0.110271 0.114152 0.002119
v 0.117732 -0.112206 -0.003727
v 0.117820 0.117491 -0.003727
v 0.117732 -0.112206 0.002118
v 0.117820 0.117491 0.002118
v -0.009003 0.022765 0.005214
v -0.003250 0.024153 0.005214
v -0.011536 0.033266 0.005214
v -0.005783 0.034653 0.005214
v -0.009429 0.021666 0.001894
v -0.002370 0.023369 0.001894
v -0.012318 0.033643 0.001894
v -0.005259 0.035345 0.001894
v -0.021369 0.019950 0.007414
v -0.015181 0.021394 0.007414
v -0.023817 0.030440 0.007414
v -0.017630 0.031884 0.007414
v -0.021984 0.018674 0.002264
v -0.014125 0.020676 0.002264
v -0.025038 0.030664 0.002264
v -0.017179 0.032666 0.002264
v -0.029962 0.011675 0.002264
v -0.023868 0.016270 0.002264
v -0.037181 0.021247 0.002264
v -0.031087 0.025843 0.002264
v -0.030060 0.012911 0.007414
v -0.025029 0.016705 0.007414
v -0.036019 0.020813 0.007414
v -0.030989 0.024607 0.007414
v -0.036311 0.002365 0.002264
v -0.031305 0.008575 0.002264
v -0.045968 0.010150 0.002264
v -0.040962 0.016360 0.002264
v -0.036809 0.003447 0.006908
v -0.032395 0.008924 0.006908
v -0.044703 0.009811 0.006908
v -0.040289 0.015287 0.006908
v -0.062433 0.018493 0.002021
v -0.052490 0.008326 0.001252
v -0.034797 0.045522 0.003072
v -0.024854 0.035356 0.002723
v -0.048615 0.032007 0.002210
v -0.057462 0.013410 0.001284
v -0.038672 0.021841 0.002565
v -0.029826 0.040439 0.003074
v -0.043342 0.027363 0.004626
v -0.055524 0.025250 0.001663
v -0.054862 0.011053 0.003308
v -0.031763 0.028598 0.002520
v -0.032312 0.042980 0.003130
v -0.041706 0.038765 0.002701
v -0.059948 0.015951 0.001610
v -0.045581 0.015084 0.001934
v -0.027340 0.037897 0.003363
v -0.036448 0.034435 0.004825
v -0.050309 0.020304 0.004477
v -0.046004 0.029980 0.004963
v -0.041197 0.024820 0.004497
v -0.047964 0.018193 0.004125
v -0.052568 0.023159 0.004426
v -0.038999 0.036739 0.004991
v -0.034050 0.031731 0.005080
v 0.002477 -0.041009 0.003216
v 0.057760 -0.038022 0.002988
v -0.002283 0.047090 0.002372
v 0.057342 0.047925 0.002042
v -0.011388 0.002157 0.001342
v 0.030119 -0.039516 0.003895
v 0.059041 0.003342 0.003989
v 0.024691 0.056202 0.004434
v 0.030774 0.002830 0.010082
v -0.005947 -0.019868 0.003342
v 0.043939 -0.038769 0.003244
v 0.062193 0.023214 0.002107
v 0.011537 0.047837 0.002436
v -0.005344 0.025065 0.002452
v 0.016298 -0.040263 0.004434
v 0.056570 -0.015997 0.002629
v 0.042853 0.054796 0.004022
v 0.029241 0.028780 0.010264
v 0.029657 -0.017927 0.008468
v 0.006669 0.003991 0.011500
v 0.045904 0.002344 0.003617
v 0.045832 -0.017174 0.003505
v 0.010025 -0.018511 0.008782
v 0.009722 0.026233 0.005733
v 0.049596 0.026747 0.006997
v -0.056457 -0.041882 0.003840
v -0.022844 -0.068281 0.002893
v -0.041372 -0.010284 0.002085
v 0.005850 -0.040672 0.004189
v -0.058142 -0.019888 0.001534
v -0.046271 -0.063436 0.002861
v -0.002932 -0.059033 0.003451
v -0.017941 -0.023393 0.002518
v -0.030321 -0.040438 0.010042
v -0.056076 -0.034751 0.002347
v -0.031520 -0.068122 0.004123
v 0.003258 -0.050510 0.003897
v -0.029837 -0.014753 0.002461
v -0.051953 -0.011365 0.002036
v -0.055527 -0.050147 0.002410
v -0.012719 -0.066240 0.002638
v -0.006045 -0.032032 0.002740
v -0.021915 -0.029937 0.010447
v -0.036198 -0.049723 0.006523
v -0.042136 -0.026560 0.010015
v -0.013934 -0.048467 0.009318
v -0.025330 -0.059599 0.005417
v -0.047922 -0.040563 0.006008
v -0.036757 -0.019208 0.008330
v -0.008927 -0.037648 0.008953
v -0.028437 -0.024854 0.002001
v 0.001643 -0.024214 0.001544
v -0.027686 0.007140 0.002145
v -0.003256 0.007815 0.002102
v -0.030961 -0.008929 0.002001
v -0.015348 -0.025015 0.002001
v 0.000371 -0.008122 0.001777
v -0.015894 0.007760 0.002316
v -0.015399 -0.008055 0.006533
v -0.030712 -0.016892 0.002001
v -0.004901 -0.024989 0.001544
v 0.000122 -0.000159 0.001777
v -0.022829 0.008472 0.002145
v -0.031149 0.000305 0.002045
v -0.021893 -0.025220 0.002001
v 0.001394 -0.016251 0.001544
v -0.009350 0.007965 0.002316
v -0.015105 0.000466 0.006369
v -0.015011 -0.015739 0.005617
v -0.022488 -0.007765 0.004680
v -0.006173 -0.008326 0.007025
v -0.006038 -0.014908 0.005218
v -0.022489 -0.015695 0.004740
v -0.023202 0.000536 0.006044
v -0.005971 -0.000009 0.007239
v -0.110359 -0.115545 0.002119
v -0.110359 -0.115545 -0.003727
v -0.110271 0.114152 -0.003727
v -0.110271 0.114152 0.002119
v 0.117820 0.117491 0.002118
v 0.117732 -0.112206 0.002118
v 0.117732 -0.112206 -0.003727
v 0.117820 0.117491 -0.003727
vn -0.0000 -0.0000 1.0000
vn -0.4677 -0.8613 0.1983
vn -0.4677 -0.8613 -0.1983
vn 0.8670 -0.4708 -0.1635
vn -0.8670 0.4708 0.1635
vn 0.8436 -0.4581 0.2801
vn -0.0000 -0.0000 -1.0000
vn -0.0146 0.9999 -0.0000
vn 0.0146 -0.9999 -0.0000
vn -0.9528 -0.2298 0.1983
vn -0.9528 -0.2298 -0.1983
vn 0.2313 -0.9590 -0.1635
vn -0.2313 0.9590 0.1635
vn 0.2251 -0.9332 0.2801
vn -0.9529 -0.2333 0.1937
vn -0.2416 0.9483 -0.2060
vn -0.9562 -0.2436 -0.1623
vn -0.9669 -0.2257 -0.1189
vn 0.2456 -0.9642 -0.1002
vn 0.2236 -0.9580 0.1794
vn -0.2254 0.9660 0.1269
vn 0.7918 0.5972 -0.1282
vn -0.5901 0.7824 -0.1991
vn -0.7918 -0.5972 -0.1282
vn 0.5901 -0.7824 -0.1991
vn 0.5901 -0.7824 0.1991
vn -0.5901 0.7824 0.1991
vn 0.6235 0.7735 -0.1133
vn 0.7539 -0.6077 -0.2498
vn -0.7588 0.6116 -0.2240
vn -0.6251 -0.7755 -0.0886
vn 0.7588 -0.6116 0.2240
vn -0.7539 0.6077 0.2498
vn 0.3285 -0.2391 0.9138
vn 0.1571 0.1184 0.9805
vn 0.0015 -0.0509 0.9987
vn 0.2915 -0.3641 0.8846
vn 0.0331 -0.0712 0.9969
vn -0.2986 0.0264 0.9540
vn 0.2985 -0.3905 0.8708
vn -0.4731 0.4070 0.7814
vn -0.2943 0.1347 0.9462
vn -0.1882 -0.2144 0.9584
vn -0.1724 0.2883 0.9419
vn -0.4363 0.4186 0.7965
vn 0.0415 -0.0581 0.9974
vn 0.0876 0.1831 0.9792
vn -0.0427 -0.0130 0.9990
vn 0.3316 -0.3752 0.8656
vn 0.2864 0.1177 0.9508
vn -0.2457 0.1642 0.9553
vn 0.0381 -0.0976 0.9945
vn 0.0247 -0.0394 0.9989
vn 0.3429 -0.0503 0.9380
vn 0.1883 -0.1154 0.9753
vn 0.0460 0.0015 0.9989
vn -0.4074 -0.0951 0.9083
vn -0.2034 -0.1703 0.9642
vn 0.0328 -0.1966 0.9799
vn -0.1205 0.0900 0.9886
vn -0.3837 0.1709 0.9075
vn -0.0744 0.1171 0.9903
vn 0.1093 0.1775 0.9780
vn 0.2584 -0.0792 0.9628
vn 0.1670 -0.0591 0.9842
vn 0.3407 0.2287 0.9119
vn 0.3555 0.5736 0.7380
vn -0.2175 -0.1998 0.9554
vn 0.0907 -0.3449 0.9342
vn -0.1059 -0.2593 0.9600
vn -0.0923 -0.1518 0.9841
vn 0.1011 -0.2508 0.9627
vn -0.4644 -0.0381 0.8848
vn -0.2455 -0.0048 0.9694
vn -0.2027 -0.1478 0.9680
vn 0.0762 0.5979 0.7980
vn -0.2985 0.2854 0.9107
vn -0.0083 0.0779 0.9969
vn 0.4166 0.5796 0.7003
vn 0.0556 -0.0368 0.9978
vn 0.2787 -0.1653 0.9461
vn 0.3943 0.4049 0.8250
vn -0.0052 0.4627 0.8865
vn -0.1852 -0.0584 0.9810
vn 0.5322 -0.0750 0.8433
vn 0.0007 -0.1875 0.9823
vn 0.0567 -0.3498 0.9351
vn 0.2436 -0.1755 0.9539
vn -0.3085 -0.0012 0.9512
vn -0.1696 -0.1796 0.9690
vn -0.0555 -0.3204 0.9457
vn -0.3177 0.3127 0.8951
vn -0.3683 -0.0932 0.9250
vn -0.1433 -0.0739 0.9869
vn -0.0395 0.4984 0.8660
vn -0.0741 -0.0008 0.9973
vn 0.6466 -0.0081 0.7628
vn 1.0000 -0.0004 -0.0000
vn -1.0000 0.0004 -0.0000
vt 0.000000 0.000000
vt 1.000000 0.000000
vt 1.000000 1.000000
vt 0.000000 1.000000
vt 0.375000 0.750000
vt 0.375000 0.500000
vt 0.375000 0.250000
vt 0.625000 0.250000
vt 0.625000 0.500000
vt 0.625000 0.750000
vt 0.625000 1.000000
vt 0.375000 1.000000
vt 0.125000 0.500000
vt 0.125000 0.750000
vt 0.875000 0.500000
vt 0.875000 0.750000
vt 0.750000 0.750000
vt 1.000000 0.750000
vt 0.750000 1.000000
vt 0.250000 0.750000
vt 0.500000 0.750000
vt 0.500000 1.000000
vt 0.250000 1.000000
vt 0.250000 0.250000
vt 0.500000 0.250000
vt 0.500000 0.500000
vt 0.250000 0.500000
vt 0.750000 0.250000
vt 1.000000 0.250000
vt 1.000000 0.500000
vt 0.750000 0.500000
vt 0.500000 0.000000
vt 0.750000 0.000000
vt 0.000000 0.250000
vt 0.000000 0.500000
vt 0.250000 0.000000
vt 0.000000 0.750000
vt 0.375000 0.000000
vt 0.625000 0.000000
s 0
usemtl pc.005
f 1/1/1 2/2/1 4/3/1 3/4/1
f 5/1/1 6/2/1 8/3/1 7/4/1
f 1/1/2 3/1/2 7/4/2 5/1/2
f 8/3/3 6/1/3 2/2/3
f 8/1/3 2/1/3 4/1/3
f 7/4/4 8/1/4 3/1/4
f 3/1/5 4/1/5 8/1/5
f 2/2/6 1/1/6 5/1/6 6/1/6
usemtl pc.012
f 13/5/1 15/6/1 154/6/1 155/5/1
f 11/7/7 12/8/7 16/9/7 15/6/7
f 14/10/1 13/5/1 155/5/1 156/10/1
f 13/5/1 14/10/1 10/11/1 9/12/1
f 11/13/8 15/6/8 13/5/8 9/14/8
f 16/9/9 12/15/9 10/16/9 14/10/9
f 150/38/98 151/39/98 152/8/98 149/7/98
f 154/6/99 153/9/99 156/10/99 155/5/99
f 12/8/1 11/7/1 149/7/1 152/8/1
f 9/12/1 10/11/1 151/11/1 150/12/1
f 16/9/1 14/10/1 156/10/1 153/9/1
f 15/6/1 16/9/1 153/9/1 154/6/1
f 10/16/1 12/15/1 152/15/1 151/16/1
f 11/13/1 9/14/1 150/14/1 149/13/1
usemtl pc.011
f 17/1/1 18/2/1 20/3/1 19/4/1
f 21/1/1 22/2/1 24/3/1 23/4/1
f 17/1/10 19/1/10 23/4/10 21/1/10
f 24/3/11 22/1/11 18/2/11
f 24/1/11 18/1/11 20/1/11
f 23/4/12 24/1/12 19/1/12
f 19/1/13 20/1/13 24/1/13
f 18/2/14 17/1/14 21/1/14 22/1/14
usemtl pc.010
f 25/1/1 26/2/1 28/3/1 27/4/1
f 29/1/1 30/2/1 32/3/1 31/4/1
f 25/1/15 27/1/15 31/4/15 29/1/15
f 30/1/16 29/1/16 25/1/16
f 32/3/17 30/1/17 26/2/17
f 32/1/18 26/1/18 28/1/18
f 31/4/19 32/1/19 27/1/19
f 26/2/20 25/1/20 30/1/20
f 27/1/21 28/1/21 32/1/21
usemtl pc.009
f 33/1/1 34/2/1 36/3/1 35/4/1
f 37/1/1 38/2/1 40/3/1 39/4/1
f 33/1/22 35/4/22 39/4/22 37/1/22
f 34/1/23 33/1/23 37/1/23
f 36/3/24 34/1/24 38/2/24
f 36/1/24 38/1/24 40/1/24
f 35/4/25 36/1/25 39/1/25
f 38/2/26 37/1/26 34/1/26
f 39/1/27 40/1/27 36/1/27
usemtl pc.008
f 41/1/1 42/2/1 44/3/1 43/4/1
f 45/1/1 46/2/1 48/3/1 47/4/1
f 41/1/28 43/4/28 47/4/28 45/1/28
f 44/1/29 47/1/29 43/4/29
f 41/1/30 45/1/30 42/1/30
f 42/1/31 46/2/31 44/3/31
f 44/1/31 46/1/31 48/1/31
f 45/1/32 42/1/32 46/2/32
f 48/1/33 44/1/33 47/1/33
usemtl Material.009
f 73/17/34 60/18/34 52/3/34 65/19/34
f 72/20/35 66/21/35 56/22/35 61/23/35
f 71/24/36 67/25/36 57/26/36 68/27/36
f 70/28/37 64/29/37 55/30/37 69/31/37
f 67/25/38 70/28/38 69/31/38 57/26/38
f 54/32/39 59/33/39 70/28/39 67/25/39
f 59/33/40 50/2/40 64/29/40 70/28/40
f 58/34/41 71/24/41 68/27/41 53/35/41
f 49/1/42 63/36/42 71/24/42 58/34/42
f 63/36/43 54/32/43 67/25/43 71/24/43
f 62/37/44 72/20/44 61/23/44 51/4/44
f 53/35/45 68/27/45 72/20/45 62/37/45
f 68/27/46 57/26/46 66/21/46 72/20/46
f 66/21/47 73/17/47 65/19/47 56/22/47
f 57/26/48 69/31/48 73/17/48 66/21/48
f 69/31/49 55/30/49 60/18/49 73/17/49
usemtl Material.010
f 98/17/50 85/18/50 77/3/50 90/19/50
f 97/20/51 91/21/51 81/22/51 86/23/51
f 96/24/52 92/25/52 82/26/52 93/27/52
f 95/28/53 89/29/53 80/30/53 94/31/53
f 92/25/54 95/28/54 94/31/54 82/26/54
f 79/32/55 84/33/55 95/28/55 92/25/55
f 84/33/56 75/2/56 89/29/56 95/28/56
f 83/34/57 96/24/57 93/27/57 78/35/57
f 74/1/58 88/36/58 96/24/58 83/34/58
f 88/36/59 79/32/59 92/25/59 96/24/59
f 87/37/60 97/20/60 86/23/60 76/4/60
f 78/35/61 93/27/61 97/20/61 87/37/61
f 93/27/62 82/26/62 91/21/62 97/20/62
f 91/21/63 98/17/63 90/19/63 81/22/63
f 82/26/64 94/31/64 98/17/64 91/21/64
f 94/31/65 80/30/65 85/18/65 98/17/65
usemtl Material.011
f 123/17/66 110/18/66 102/3/66 115/19/66
f 122/20/67 116/21/67 106/22/67 111/23/67
f 121/24/68 117/25/68 107/26/68 118/27/68
f 120/28/69 114/29/69 105/30/69 119/31/69
f 117/25/70 120/28/70 119/31/70 107/26/70
f 104/32/71 109/33/71 120/28/71 117/25/71
f 109/33/72 100/2/72 114/29/72 120/28/72
f 108/34/73 121/24/73 118/27/73 103/35/73
f 99/1/74 113/36/74 121/24/74 108/34/74
f 113/36/75 104/32/75 117/25/75 121/24/75
f 112/37/76 122/20/76 111/23/76 101/4/76
f 103/35/77 118/27/77 122/20/77 112/37/77
f 118/27/78 107/26/78 116/21/78 122/20/78
f 116/21/79 123/17/79 115/19/79 106/22/79
f 107/26/80 119/31/80 123/17/80 116/21/80
f 119/31/81 105/30/81 110/18/81 123/17/81
usemtl Material.008
f 148/17/82 135/18/82 127/3/82 140/19/82
f 147/20/83 141/21/83 131/22/83 136/23/83
f 146/24/84 142/25/84 132/26/84 143/27/84
f 145/28/85 139/29/85 130/30/85 144/31/85
f 142/25/86 145/28/86 144/31/86 132/26/86
f 129/32/87 134/33/87 145/28/87 142/25/87
f 134/33/88 125/2/88 139/29/88 145/28/88
f 133/34/89 146/24/89 143/27/89 128/35/89
f 124/1/90 138/36/90 146/24/90 133/34/90
f 138/36/91 129/32/91 142/25/91 146/24/91
f 137/37/92 147/20/92 136/23/92 126/4/92
f 128/35/93 143/27/93 147/20/93 137/37/93
f 143/27/94 132/26/94 141/21/94 147/20/94
f 141/21/95 148/17/95 140/19/95 131/22/95
f 132/26/96 144/31/96 148/17/96 141/21/96
f 144/31/97 130/30/97 135/18/97 148/17/97
